# xmcd
#
# Track frame offsets:
#	150
#	17008
#	37413
#	55159
#	73022
#	102456
#	125431
#	146234
#	162930
#	182388
#
# Disc length: 2666 seconds
#
# Revision: 3
# Processed by: cddbd v1.5.2PL0 Copyright (c) Steve Scherf et al.
# Submitted via: EasyCDDAExtractor 2010.4.0.0
#
DISCID=900a680a
DTITLE=Saint Jude - Diary Of A Soul Fiend
DYEAR=2010
DGENRE=Blues
TTITLE0=Soul On Fire
TTITLE1=Garden Of Eden
TTITLE2=Little Queen
TTITLE3=Down This Road
TTITLE4=Down And Out
TTITLE5=Pleased To Meet You
TTITLE6=Angel
TTITLE7=Rivers And Streams
TTITLE8=Parallel Life
TTITLE9=Southern Belles
EXTD=
EXTT0=
EXTT1=
EXTT2=
EXTT3=
EXTT4=
EXTT5=
EXTT6=
EXTT7=
EXTT8=
EXTT9=
PLAYORDER=
